<?xml version="1.0" encoding="utf-8"?>
<!-- Generator: Adobe Illustrator 18.1.1, SVG Export Plug-In . SVG Version: 6.00 Build 0)  -->
<svg version="1.1" id="Layer_1" xmlns="http://www.w3.org/2000/svg" xmlns:xlink="http://www.w3.org/1999/xlink" x="0px" y="0px"
	 viewBox="0 0 366.5 123.9" enable-background="new 0 0 366.5 123.9" xml:space="preserve">
<g>
	<path fill="#BBBBBB" d="M89,81.4l-22-21L40.7,0H0v123.8h40.7V42.4l22,21L89,123.8h40.7V0H89V81.4z M35.6,30.6L8.9,5.1h26.7V30.6z
		 M35.6,118.7H5.1V8.5l30.5,29.1V118.7z M40.7,35.4V12.8l16.8,38.6L40.7,35.4z M72.2,72.4l16.8,16v22.6L72.2,72.4z M94.1,93.3
		l26.7,25.4H94.1V93.3z M124.6,5.1v110.2L94.1,86.3V5.1H124.6z"/>
	<path fill="#BBBBBB" d="M134.1,40.8h35.6v83.1h40.7V40.8H246V0.1H134.1V40.8z M174.8,48.9l28.5,69.9h-28.5V48.9z M240.9,35.7h-35.6
		v74.6L162.5,5.2h78.4V35.7z M139.2,5.2h17.8l12.4,30.5h-30.3V5.2z"/>
	<path fill="#BBBBBB" d="M315.3,42.7L366.5,0h-44.1l-0.7,1.2l0,0l-16.8,28l-14.1,23.5V0h-40.7v123.8h40.7V71.3l31.2,52.5l0.1-0.1
		H364L315.3,42.7z M298.2,50.3l27.1-45.2h27.1L298.2,50.3z M285.7,5.1v56.1l-7.4,12.3l0,0l-23.2,38.6V5.1H285.7z M257.2,118.7
		l28.6-47.6v47.6H257.2z M291.5,62.5L311.4,46l43.6,72.7h-30.2L291.5,62.5z"/>
</g>
</svg>
